<svg width="25" height="25" viewBox="0 0 25 25" fill="none" xmlns="http://www.w3.org/2000/svg">
<g id="ringing-bell-notification--notification-vibrate-ring-sound-alarm-alert-bell-noise" clip-path="url(#clip0_124_479)">
<g id="ringing-bell-notification--notification-vibrate-ring-sound-alarm-alert-bell-noise_2">
<path id="Vector" d="M10.7144 23.6606H14.2858" stroke="white" stroke-width="2" stroke-linecap="round" stroke-linejoin="round"/>
<path id="Vector_2" d="M19.6428 10.2679C19.6428 8.37345 18.8903 6.55664 17.5507 5.21709C16.2111 3.87755 14.3943 3.125 12.4999 3.125C10.6055 3.125 8.78868 3.87755 7.44913 5.21709C6.10959 6.55664 5.35704 8.37345 5.35704 10.2679V16.5179C5.35704 17.2282 5.07482 17.9096 4.5725 18.412C4.07018 18.9143 3.38886 19.1964 2.67847 19.1964H22.3213C21.611 19.1964 20.9295 18.9143 20.4272 18.412C19.9249 17.9096 19.6428 17.2282 19.6428 16.5179V10.2679Z" stroke="white" stroke-width="2" stroke-linecap="round" stroke-linejoin="round"/>
<path id="Vector_3" d="M0.892822 10.0357C0.893785 8.33591 1.29913 6.66079 2.07539 5.14864C2.85164 3.6365 3.97652 2.33075 5.35711 1.33923" stroke="white" stroke-width="2" stroke-linecap="round" stroke-linejoin="round"/>
<path id="Vector_4" d="M24.1071 10.0357C24.1062 8.33591 23.7009 6.66079 22.9246 5.14864C22.1484 3.6365 21.0234 2.33075 19.6428 1.33923" stroke="white" stroke-width="2" stroke-linecap="round" stroke-linejoin="round"/>
</g>
</g>
<defs>
<clipPath id="clip0_124_479">
<rect width="25" height="25" fill="white"/>
</clipPath>
</defs>
</svg>
