<svg width="25" height="25" viewBox="0 0 25 25" fill="none" xmlns="http://www.w3.org/2000/svg">
<g id="cog--work-loading-cog-gear-settings-machine" clip-path="url(#clip0_124_473)">
<g id="cog--work-loading-cog-gear-settings-machine_2">
<path id="Vector" d="M9.33933 4.01782L10.1072 2.03568C10.2367 1.70008 10.4645 1.41141 10.7609 1.20749C11.0572 1.00356 11.4082 0.893885 11.7679 0.892822H13.2322C13.5919 0.893885 13.9429 1.00356 14.2392 1.20749C14.5356 1.41141 14.7634 1.70008 14.8929 2.03568L15.6608 4.01782L18.2678 5.51782L20.375 5.19639C20.7259 5.14877 21.083 5.20652 21.401 5.36232C21.7189 5.51813 21.9834 5.76493 22.1607 6.07139L22.875 7.32139C23.058 7.63273 23.1425 7.99225 23.1169 8.3525C23.0914 8.71275 22.9573 9.0568 22.7321 9.33925L21.4285 11V14L22.7678 15.6607C22.993 15.9431 23.1271 16.2872 23.1527 16.6474C23.1782 17.0077 23.0937 17.3672 22.9107 17.6785L22.1964 18.9285C22.0191 19.235 21.7546 19.4818 21.4368 19.6376C21.1187 19.7934 20.7616 19.8512 20.4107 19.8035L18.3035 19.4821L15.6965 20.9821L14.9286 22.9643C14.7991 23.2998 14.5713 23.5885 14.275 23.7925C13.9786 23.9964 13.6276 24.106 13.2679 24.1071H11.7679C11.4082 24.106 11.0572 23.9964 10.7609 23.7925C10.4645 23.5885 10.2367 23.2998 10.1072 22.9643L9.33933 20.9821L6.73219 19.4821L4.62505 19.8035C4.27419 19.8512 3.91708 19.7934 3.59912 19.6376C3.28117 19.4818 3.01671 19.235 2.83933 18.9285L2.12505 17.6785C1.94201 17.3672 1.85769 17.0077 1.88319 16.6474C1.90869 16.2872 2.04283 15.9431 2.2679 15.6607L3.57148 14V11L2.23219 9.33925C2.00712 9.0568 1.87298 8.71275 1.84748 8.3525C1.82198 7.99225 1.9063 7.63273 2.08933 7.32139L2.80362 6.07139C2.98099 5.76493 3.24546 5.51813 3.5634 5.36232C3.88137 5.20652 4.23848 5.14877 4.58933 5.19639L6.69648 5.51782L9.33933 4.01782ZM8.92862 12.5C8.92862 13.2063 9.13808 13.8968 9.53051 14.4841C9.92296 15.0715 10.4807 15.5292 11.1333 15.7995C11.7859 16.0698 12.504 16.1406 13.1968 16.0028C13.8896 15.865 14.526 15.5248 15.0254 15.0253C15.5249 14.5259 15.865 13.8895 16.0029 13.1967C16.1407 12.5039 16.0699 11.7858 15.7996 11.1332C15.5293 10.4806 15.0715 9.92286 14.4842 9.53043C13.8969 9.138 13.2064 8.92854 12.5 8.92854C11.5529 8.92854 10.6444 9.3048 9.97467 9.97459C9.3049 10.6444 8.92862 11.5528 8.92862 12.5Z" stroke="white" stroke-width="2" stroke-linecap="round" stroke-linejoin="round"/>
</g>
</g>
<defs>
<clipPath id="clip0_124_473">
<rect width="25" height="25" fill="white"/>
</clipPath>
</defs>
</svg>
